/* XPM */
static char * dust_xpm[] = {
"64 64 486 2",
"  	c None",
". 	c #252A31",
"+ 	c #29323B",
"@ 	c #262D35",
"# 	c #272C33",
"$ 	c #DBD3AD",
"% 	c #DBD2AC",
"& 	c #DAD1AB",
"* 	c #B7BAC7",
"= 	c #DAD0AA",
"- 	c #DAD0A9",
"; 	c #D9D0A8",
"> 	c #D9D0A9",
", 	c #D9CFA8",
"' 	c #D8CEA6",
") 	c #D8CDA5",
"! 	c #D7CDA5",
"~ 	c #D7CDA4",
"{ 	c #D7CCA3",
"] 	c #D6CBA3",
"^ 	c #D6CCA3",
"/ 	c #D6CAA2",
"( 	c #D5C9A0",
"_ 	c #D4C9A0",
": 	c #D4C89F",
"< 	c #D4C99F",
"[ 	c #D3C79E",
"} 	c #D3C79D",
"| 	c #D3C69D",
"1 	c #D2C69C",
"2 	c #D2C69B",
"3 	c #D2C59B",
"4 	c #D1C59B",
"5 	c #D1C49A",
"6 	c #D0C39A",
"7 	c #D0C399",
"8 	c #D0C398",
"9 	c #D0C298",
"0 	c #CFC298",
"a 	c #CEC095",
"b 	c #CEC094",
"c 	c #CEBF94",
"d 	c #CFC095",
"e 	c #CEBC8F",
"f 	c #CDBA8C",
"g 	c #CDBA8B",
"h 	c #CFC195",
"i 	c #CEBD90",
"j 	c #D0C49A",
"k 	c #CDBB8D",
"l 	c #D8C190",
"m 	c #D0C095",
"n 	c #D8C191",
"o 	c #D1C49B",
"p 	c #D0C195",
"q 	c #CEBB8D",
"r 	c #D9C191",
"s 	c #D9C291",
"t 	c #D0C196",
"u 	c #CEBC8D",
"v 	c #D9C392",
"w 	c #D1C196",
"x 	c #D3C69C",
"y 	c #D1C297",
"z 	c #CFBD8E",
"A 	c #DAC393",
"B 	c #D1C397",
"C 	c #DAC493",
"D 	c #D2C398",
"E 	c #D0BD90",
"F 	c #DAC494",
"G 	c #D2C498",
"H 	c #DBC494",
"I 	c #D4C79E",
"J 	c #D4C89E",
"K 	c #D3C49A",
"L 	c #D1BF91",
"M 	c #DBC595",
"N 	c #DBC695",
"O 	c #D4C69B",
"P 	c #D1C092",
"Q 	c #DCC697",
"R 	c #DDC797",
"S 	c #D5C9A1",
"T 	c #D2C093",
"U 	c #D5CAA1",
"V 	c #D6CAA1",
"W 	c #D6C9A1",
"X 	c #D4C69C",
"Y 	c #DDC798",
"Z 	c #D3C093",
"` 	c #D5C79D",
" .	c #D3C194",
"..	c #DDC899",
"+.	c #D6CAA3",
"@.	c #DEC999",
"#.	c #D5C79E",
"$.	c #D3C295",
"%.	c #DEC99A",
"&.	c #D6C79E",
"*.	c #D7CCA4",
"=.	c #D6CBA4",
"-.	c #D6CCA4",
";.	c #D7CBA4",
">.	c #D7CBA3",
",.	c #D6C89F",
"'.	c #D4C396",
").	c #DECA9B",
"!.	c #D6C99F",
"~.	c #D4C397",
"{.	c #D7CCA5",
"].	c #D6C9A0",
"^.	c #DFCB9C",
"/.	c #D4C497",
"(.	c #D7CDA6",
"_.	c #D7CAA1",
":.	c #D5C498",
"<.	c #E0CC9D",
"[.	c #D8CDA7",
"}.	c #D5C599",
"|.	c #E0CC9E",
"1.	c #D6C59A",
"2.	c #E0CD9E",
"3.	c #E0CD9F",
"4.	c #D8CEA7",
"5.	c #D7CAA3",
"6.	c #D6C69A",
"7.	c #E1CDA0",
"8.	c #E1CD9F",
"9.	c #D8CEA8",
"0.	c #D9CEA8",
"a.	c #D6C69B",
"b.	c #E1CEA0",
"c.	c #E1CEA1",
"d.	c #E1CFA1",
"e.	c #D9CFA9",
"f.	c #D8CCA4",
"g.	c #D6C79C",
"h.	c #D9CFAA",
"i.	c #D6C79D",
"j.	c #E2CFA2",
"k.	c #D7C79D",
"l.	c #D8CCA5",
"m.	c #E2CFA3",
"n.	c #D9CFAB",
"o.	c #D9CDA5",
"p.	c #D7C79E",
"q.	c #E3D0A3",
"r.	c #E2D0A3",
"s.	c #D7C89E",
"t.	c #D9CDA6",
"u.	c #E3D0A4",
"v.	c #D8CCA6",
"w.	c #D9CEAA",
"x.	c #D9CEA9",
"y.	c #D8CEA9",
"z.	c #D8CDA9",
"A.	c #D8CDA8",
"B.	c #D7CAA4",
"C.	c #D6C69C",
"D.	c #D7CDA7",
"E.	c #D7CCA7",
"F.	c #D7CCA6",
"G.	c #D6C9A2",
"H.	c #D6C59B",
"I.	c #D7CBA5",
"J.	c #D6CAA4",
"K.	c #D6CBA5",
"L.	c #D6C9A3",
"M.	c #D6C7A0",
"N.	c #D4C398",
"O.	c #D6C9A4",
"P.	c #D5C9A3",
"Q.	c #D5C69E",
"R.	c #D4C297",
"S.	c #D5C8A2",
"T.	c #D4C7A1",
"U.	c #D4C7A0",
"V.	c #D4C49C",
"W.	c #D3C195",
"X.	c #D4C6A0",
"Y.	c #D4C69F",
"Z.	c #D3C49B",
"`.	c #D2C094",
" +	c #D3C69F",
".+	c #D3C6A0",
"++	c #D3C59E",
"@+	c #D3C49E",
"#+	c #D3C49D",
"$+	c #D2C299",
"%+	c #D1BF92",
"&+	c #D2C49C",
"*+	c #D2C49D",
"=+	c #D1C49C",
"-+	c #D1C39C",
";+	c #D1C39B",
">+	c #D1C197",
",+	c #DCC696",
"'+	c #CFC098",
")+	c #CEC098",
"!+	c #CEC097",
"~+	c #CEBD93",
"{+	c #D9C292",
"]+	c #CEBF97",
"^+	c #CEBF96",
"/+	c #CDB98B",
"(+	c #CEBE96",
"_+	c #CDBD95",
":+	c #CCBB91",
"<+	c #CBB78A",
"[+	c #D7C090",
"}+	c #CCBD94",
"|+	c #CCBD95",
"1+	c #CFC099",
"2+	c #D0C19A",
"3+	c #D5C79F",
"4+	c #D5C499",
"5+	c #D6CAA5",
"6+	c #D6C7A1",
"7+	c #D5C49A",
"8+	c #D6C8A1",
"9+	c #D6CAA6",
"0+	c #D7CBA6",
"a+	c #D7CAA5",
"b+	c #D6CBA6",
"c+	c #D7CAA6",
"d+	c #D7C8A2",
"e+	c #D6C59C",
"f+	c #E0CEA2",
"g+	c #E0CEA1",
"h+	c #E0CDA0",
"i+	c #D6C9A5",
"j+	c #D6C8A2",
"k+	c #D4C399",
"l+	c #E0CC9F",
"m+	c #D4C7A2",
"n+	c #373A3C",
"o+	c #65635B",
"p+	c #BEB295",
"q+	c #E3D2A9",
"r+	c #272C32",
"s+	c #E5D5B0",
"t+	c #D1C29F",
"u+	c #262B31",
"v+	c #C2B99E",
"w+	c #DAD0B0",
"x+	c #272B32",
"y+	c #DBD1B3",
"z+	c #A49E8A",
"A+	c #5E5E57",
"B+	c #393C3E",
"C+	c #282D33",
"D+	c #262B32",
"E+	c #33373B",
"F+	c #4B4D4C",
"G+	c #8D897A",
"H+	c #DACEAC",
"I+	c #D7C69E",
"J+	c #DBC79B",
"K+	c #90866F",
"L+	c #51504A",
"M+	c #303337",
"N+	c #303338",
"O+	c #51514D",
"P+	c #948C79",
"Q+	c #DECEA7",
"R+	c #E1CFA5",
"S+	c #DFCC9F",
"T+	c #DECA9C",
"U+	c #D4C6A1",
"V+	c #636259",
"W+	c #8F8E88",
"X+	c #8F8E87",
"Y+	c #87857D",
"Z+	c #646461",
"`+	c #282D34",
" @	c #B6AF9C",
".@	c #847F73",
"+@	c #2D3237",
"@@	c #98958C",
"#@	c #EEE4CD",
"$@	c #958F81",
"%@	c #898880",
"&@	c #E6DEC8",
"*@	c #8F8C7E",
"=@	c #373A3D",
"-@	c #85847E",
";@	c #71716E",
">@	c #393C40",
",@	c #74746E",
"'@	c #81807A",
")@	c #636462",
"!@	c #676765",
"~@	c #E5DBC3",
"{@	c #D4C7A8",
"]@	c #4D4D49",
"^@	c #716E66",
"/@	c #969285",
"(@	c #706F69",
"_@	c #515251",
":@	c #DED1B4",
"<@	c #E3D2AD",
"[@	c #DFCBA0",
"}@	c #D3C49F",
"|@	c #D0C29D",
"1@	c #EEE8DA",
"2@	c #E9DBBD",
"3@	c #A69F8D",
"4@	c #4F5153",
"5@	c #EFE5CE",
"6@	c #5B5B59",
"7@	c #383B40",
"8@	c #F4EDDF",
"9@	c #F1E9D7",
"0@	c #515250",
"a@	c #484B4E",
"b@	c #E3DAC3",
"c@	c #555553",
"d@	c #60605D",
"e@	c #A09D96",
"f@	c #565859",
"g@	c #E2DCCC",
"h@	c #EBE5D5",
"i@	c #E8E1CD",
"j@	c #E4DCC6",
"k@	c #6B6B67",
"l@	c #666764",
"m@	c #E7DFCA",
"n@	c #78756D",
"o@	c #9F9A8C",
"p@	c #F0E6D1",
"q@	c #EFE4CE",
"r@	c #EBDFC3",
"s@	c #999384",
"t@	c #82807B",
"u@	c #6C707A",
"v@	c #E0E1E7",
"w@	c #CCCED7",
"x@	c #C1C4CF",
"y@	c #BEC1CC",
"z@	c #2F343B",
"A@	c #E7E8EC",
"B@	c #8D9097",
"C@	c #BFC1C5",
"D@	c #CACBD0",
"E@	c #36393D",
"F@	c #CDCBC2",
"G@	c #DDD6C4",
"H@	c #292D34",
"I@	c #979283",
"J@	c #565757",
"K@	c #CCC8BD",
"L@	c #EEE9DB",
"M@	c #E7DFCB",
"N@	c #DDD2B6",
"O@	c #D8CCAC",
"P@	c #D5C9A9",
"Q@	c #D8CEB1",
"R@	c #E0D6BB",
"S@	c #373B3E",
"T@	c #292E34",
"U@	c #ECE3D1",
"V@	c #F1E8D5",
"W@	c #E9DCBF",
"X@	c #E2D1AA",
"Y@	c #D8C69E",
"Z@	c #3D4044",
"`@	c #E8DABC",
" #	c #D5C8A6",
".#	c #D0C19B",
"+#	c #FFFFFF",
"@#	c #2B2F36",
"##	c #CECFD0",
"$#	c #75787D",
"%#	c #7F8286",
"&#	c #ABA695",
"*#	c #868785",
"=#	c #AAA89E",
"-#	c #CDC4AB",
";#	c #45484A",
">#	c #EBE6DB",
",#	c #ECE6D7",
"'#	c #848177",
")#	c #DDD2B5",
"!#	c #36393E",
"~#	c #F3ECDD",
"{#	c #EFE5D1",
"]#	c #E3D3AF",
"^#	c #DCC79A",
"/#	c #DAC495",
"(#	c #2F3337",
"_#	c #ECE0C8",
":#	c #D6CAA9",
"<#	c #474B51",
"[#	c #2E333A",
"}#	c #3D4147",
"|#	c #42464C",
"1#	c #3F444A",
"2#	c #E5DDC8",
"3#	c #4D4F51",
"4#	c #404347",
"5#	c #6F706F",
"6#	c #4F5152",
"7#	c #E2DAC3",
"8#	c #676865",
"9#	c #BFBCB5",
"0#	c #EBE4D4",
"a#	c #CDC3A9",
"b#	c #B8AE91",
"c#	c #BBB197",
"d#	c #E6DECA",
"e#	c #EEE3CE",
"f#	c #E1CFAA",
"g#	c #D1BB8D",
"h#	c #393C41",
"i#	c #F3EDDF",
"j#	c #EDE2CC",
"k#	c #D7CBAB",
"l#	c #CFBF99",
"m#	c #CEBE97",
"n#	c #8F9195",
"o#	c #7A7D81",
"p#	c #EAE3D2",
"q#	c #918E85",
"r#	c #292E35",
"s#	c #8C8B86",
"t#	c #E8E1CE",
"u#	c #BDB8A6",
"v#	c #44474B",
"w#	c #CFCBBE",
"x#	c #DFD5BB",
"y#	c #7A7975",
"z#	c #A4A29B",
"A#	c #EEE4CF",
"B#	c #E2D1AD",
"C#	c #DAC597",
"D#	c #90856B",
"E#	c #807F79",
"F#	c #F2EBDC",
"G#	c #EBDFC7",
"H#	c #D6C9A8",
"I#	c #CDBE95",
"J#	c #7A7D82",
"K#	c #55585E",
"L#	c #2D3238",
"M#	c #464A50",
"N#	c #F9F9F9",
"O#	c #DCDEE2",
"P#	c #E2E3E8",
"Q#	c #C0C2CB",
"R#	c #C6C7CB",
"S#	c #D1D3DB",
"T#	c #91949D",
"U#	c #2C3138",
"V#	c #52565C",
"W#	c #656971",
"X#	c #5F636B",
"Y#	c #272B33",
"Z#	c #E1E2E8",
"`#	c #D4D6DC",
" $	c #484C54",
".$	c #6F7279",
"+$	c #898C94",
"@$	c #63676F",
"#$	c #4E5259",
"$$	c #DADBE1",
"%$	c #E3E4E9",
"&$	c #D2D3DC",
"*$	c #C0C2CE",
"=$	c #B8BBC7",
"-$	c #3C4147",
";$	c #54585D",
">$	c #2E3239",
",$	c #33383E",
"'$	c #FDFDFD",
")$	c #595D62",
"!$	c #2D3239",
"~$	c #2B3036",
"{$	c #484C52",
"]$	c #55595E",
"^$	c #2B3037",
"/$	c #2A2E35",
"($	c #3B3F45",
"_$	c #76797D",
":$	c #EFEFF0",
"<$	c #F8F8F8",
"                                                                                                                                ",
"                                                                                                                                ",
"    . + + + + + @ @ @ @ @ @ @ @ @ @ @ @ @ @ @ @ @ @ @ @ @ @ @ @ @ @ @ @ @ @ @ @ @ @ @ @ @ @ @ @ @ @ @ @ @ @ @ @ @ @ @ @ @ #     ",
"    . $ $ $ $ $ $ $ $ $ $ $ $ $ $ $ $ $ $ $ % % % % % % % % % % % % % % % % % % % % % % % % % % % % & & & & & & & & & & & *     ",
"    . = = = = = = = = = = = = = = = = - = = - - - - - - - - - - - - ; > > ; ; ; , , ; , ; , ; ; ; , ; ; , , ; ; , , , , , *     ",
"    . ' ' ' ' ' ' ' ' ' ' ) ) ' ) ) ) ) ) ) ) ) ) ) ) ) ) ) ) ) ) ) ! ! ! ! ! ! ! ! ! ! ! ! ! ! ! ! ! ! ! ! ! ! ! ! ! ! ~ *     ",
"    . { { { { { { ] { { ^ ^ ] ] ] ] ] ] ] ] ] ] ] ] ] ] ] ] ] ] ] ] ] ] ] ] ] ] ] ] / / / / / / / / / / / / / / / / / / / *     ",
"    . ( ( ( ( ( ( ( ( ( ( ( ( ( ( ( ( ( ( ( ( ( _ _ ( ( ( _ _ _ _ _ _ _ ( _ _ _ _ _ _ _ _ _ _ _ _ _ : : < : : : : : : : : *     ",
"    . [ [ [ [ [ [ [ [ [ [ [ [ [ [ [ [ [ [ } [ [ } } } } } } } } } | | | } | } } | } } | | } | } } | | } | | | | | | | | | *     ",
"    . 1 1 1 1 1 1 1 1 1 2 2 2 2 2 2 2 2 2 2 2 2 2 2 3 3 2 2 3 3 2 2 2 3 3 2 2 2 3 2 2 3 4 3 4 4 4 4 4 4 4 4 4 4 4 4 4 4 4 *     ",
"    . 5 5 5 5 5 5 5 5 5 5 5 5 5 5 5 5 5 5 5 5 5 5 5 5 5 5 5 5 5 5 5 5 5 5 5 5 5 5 5 5 5 5 5 5 5 5 5 5 5 5 5 5 5 5 5 5 5 5 *     ",
"    . 6 6 6 6 6 6 6 6 6 6 6 6 6 6 6 6 6 6 6 6 6 6 6 6 6 6 6 6 6 6 6 6 6 6 6 6 6 6 6 6 6 6 6 6 6 6 6 6 6 6 6 6 7 7 6 6 7 6 *     ",
"    . 7 7 7 7 7 7 7 7 7 7 7 7 7 7 7 7 7 7 7 7 7 7 7 7 7 7 7 7 7 7 7 7 7 7 7 7 7 7 7 7 7 7 7 7 7 7 7 7 7 7 7 7 7 7 7 7 7 7 *     ",
"    . 7 7 7 7 7 7 7 7 7 7 7 7 7 7 7 7 7 7 7 7 7 7 7 7 7 7 7 7 7 7 7 7 7 7 7 7 7 7 7 7 7 7 7 7 7 7 7 7 7 7 7 7 7 7 7 7 7 7 *     ",
"    . 7 7 7 7 7 7 7 8 8 8 8 9 8 8 9 8 8 8 8 7 7 7 7 7 7 7 7 7 7 7 7 7 7 7 7 7 7 7 8 8 8 8 9 8 9 9 8 8 8 8 7 7 7 7 7 7 7 7 *     ",
"    . 7 7 7 7 7 7 0 a b c c c c c c c c b a 0 7 7 7 7 7 6 7 7 7 7 7 7 7 7 6 7 7 9 d b c b c b c b b b b d 9 7 6 6 6 6 6 6 *     ",
"    . 6 6 6 6 6 7 d e f g g g g g g g g f e h 7 6 6 6 6 6 6 6 6 6 6 6 6 6 6 6 7 h i f g g g g g g g g f i h 7 j 6 j 6 6 j *     ",
"    . j 5 5 5 5 6 d k l l l l l l l l l l l l 6 5 5 5 5 5 5 5 5 5 5 5 5 5 5 5 j m k n n n n n n n n n n n n j 5 5 5 5 5 5 *     ",
"    . o o o o o 5 p q r r r r r r r r r r r r 5 o o o o o o o o o o o o o o o 5 p q s s s s s s s s s s s s 5 o o o o o o *     ",
"    . 3 4 2 4 2 4 t u v v v v v v v v v v v v 4 2 2 2 3 2 2 2 2 2 2 2 2 2 2 2 4 w u v v v v v v v v v v v v 4 2 2 2 2 2 2 *     ",
"    . x x x x x 2 y z A A A A A A A A A A A A 2 x x x x x | | x x | | | | | | x B z C A C C C C C C C C C C x | | | | | | *     ",
"    . } } } [ } | D E F F F F F F F F F F F F | [ [ [ [ [ [ [ [ [ [ [ [ [ [ [ | G E F F H F H H H H H H H H } [ [ I I I I *     ",
"    . : J : : : I K L M M M M M N N N N N N N I : : : : : : : : : : : : : : : J K L N N N N N N N N N N N N J _ _ _ _ _ _ *     ",
"    . ( ( ( ( ( ( O P Q Q Q Q Q Q Q Q Q R Q R ( S S S S S S S S S S S S S S ( ( O T R R R R R R R R R R R R ( U V V V V V *     ",
"    . V V V V V W X T Y Y Y Y Y Y Y Y Y Y Y Y W V V V V V V V V V V V V V V V W X Z Y Y Y Y Y Y Y Y Y Y Y Y W V V V V / / *     ",
"    . / / / / / V `  .........................V / / ] ] +.+.] ] ] ] ] ] ] ] ] / `  .@.@.@.@.@.@.@.@.@.@.@.@./ ] +.+.+.+.+.*     ",
"    . ] ] ] ] ] +.#.$.%.%.%.%.%.%.%.%.%.%.%.%.+.] ] ] ] ] ] ] ] ] ] ] ] ] ] ] +.&.$.%.%.%.%.%.%.%.%.%.%.%.%.] *.=.-.;.-.=.*     ",
"    . *.*.*.*.*.>.,.'.).).).).).).).).).).).).>.*.*.*.*.*.*.*.*.*.*.*.*.*.*.*.*.!.~.).).).).).).).).).).).).*.*.*.*.*.*.*.*     ",
"    . {.*.{.{.{.*.].~.^.^.^.^.^.^.^.^.^.^.^.^.*.{.{.{.{.{.{.{.{.{.{.{.{.{.{.{.*.]./.^.^.^.^.^.^.^.^.^.^.^.^.*.{.{.! ! ! {.*     ",
"    . (.(.(.(.(.{._.:.<.<.<.<.<.<.<.<.<.<.<.<.! (.(.(.(.(.(.(.(.(.(.(.(.(.(.(.! _.:.<.<.<.<.<.<.<.<.<.<.<.<.{.(.(.(.(.(.(.*     ",
"    . [.[.[.[.[.! _.}.|.|.|.|.|.|.|.|.|.|.|.|.(.[.[.[.[.[.[.[.[.[.[.[.[.[.[.[.(._.1.2.3.2.2.3.3.3.3.3.3.3.3.[.4.[.[.4.[.4.*     ",
"    . 4.4.4.4.4.[.5.6.7.7.7.7.7.7.8.7.7.7.7.7.[.9.9.9.9.9.9.0.9.9.9.9.0.0.9.9.[.>.a.7.7.7.7.7.7.7.7.7.7.7.7.4.0.0.0.0.0.0.*     ",
"    . 0., 0.0., 0.>.a.b.b.b.b.b.b.b.b.b.b.b.b.9., , , , , , , , , , , , , , , 9.>.a.c.c.c.c.c.c.c.c.c.c.d.d.0., , , e., , *     ",
"    . e., , , , 0.f.g.d.d.d.d.d.d.d.d.d.d.d.d., e.e.e.e.e.e.e.e.e.e.e.e.e.e.e., f.g.d.d.d.d.d.d.d.d.d.d.d.d., e.e.e.e.e.e.*     ",
"    . h.h.h.h.h.e.f.i.d.d.d.d.d.d.d.d.d.d.d.j., h.h.h.h.h.h.h.h.h.h.h.h.h.h.h.e.f.k.j.d.j.j.j.j.j.j.j.j.j.j.e.h.h.h.h.h.h.*     ",
"    . h.h.h.h.h.e.l.k.m.m.m.m.m.m.m.m.m.m.m.m.h.h.h.h.h.h.h.h.h.h.h.h.h.h.h.h.h.l.k.m.m.m.m.m.m.m.m.m.m.m.m.h.h.h.h.h.h.h.*     ",
"    . n.n.n.n.h.h.o.p.q.q.q.q.q.q.r.q.q.q.q.q.h.n.n.n.n.n.n.n.n.n.n.n.n.n.n.n.h.o.s.q.q.q.q.q.q.q.q.q.q.q.q.h.n.n.n.n.n.n.*     ",
"    . n.n.n.n.n.h.t.s.q.u.u.u.u.q.u.u.u.u.q.u.h.n.n.n.n.n.n.n.n.n.n.n.n.n.n.n.h.t.s.u.u.u.u.u.u.u.u.u.u.u.u.h.n.n.n.n.n.n.*     ",
"    . n.n.n.n.n.h.) s.u.u.u.u.u.u.u.u.u.u.u.u.h.n.n.n.n.n.n.n.n.n.n.n.n.n.n.n.h.t.s.u.u.u.u.u.u.u.u.u.u.u.u.h.n.n.h.n.n.n.*     ",
"    . n.h.h.n.h.h.l.s.u.u.u.u.u.u.u.u.u.u.u.u.h.h.h.h.h.n.h.h.n.n.n.h.h.h.h.h.h.v.s.u.u.u.u.u.u.u.u.u.u.u.u.h.n.h.n.n.h.n.*     ",
"    . h.h.h.h.h.h.l.s.u.u.u.u.u.q.u.u.u.u.q.q.h.h.h.h.h.h.h.h.h.h.h.h.h.h.h.h.w.l.p.q.q.q.q.q.q.q.q.q.q.q.q.x.h.h.h.h.h.h.*     ",
"    . x.y.y.z.x.A.;.g.j.j.j.j.j.j.j.j.j.j.j.j.A.A.A.A.A.A.A.A.A.A.A.A.A.A.A.A.A.B.C.d.d.d.d.d.d.d.d.d.d.d.d.D.A.A.A.A.A.A.*     ",
"    . E.E.E.E.E.F.G.H.b.b.b.b.b.7.b.b.b.7.7.7.I.F.F.F.F.F.F.F.F.F.F.F.F.F.F.F.I.W 1.7.7.7.8.3.8.3.3.3.3.3.3.J.I.I.K.K.K.K.*     ",
"    . J.J.J.J.J.L.M.N.<.<.<.<.<.<.<.<.<.<.<.<.L.O.O.L.L.L.L.L.L.L.L.L.L.L.P.L.L.Q.R.^.^.^.^.^.^.^.^.^.^.^.^.S.P.P.P.P.P.P.*     ",
"    . T.T.T.T.T.U.V.W.%.%.%.%.%.%.%.%.%.%.%.%.X.U.U.U.U.U.U.U.U.U.X.X.X.X.X.X.Y.Z.`.%.%.%.%.%.%.%.%.@.%.%.%. +X.X.X..+.+.+*     ",
"    . ++@+#+@+#+#+$+%+R R R R R R R R R R R R &+*+*+*+*+*+*+*+*+*+&+*+=+=+-+-+;+>+E ,+,+,+,+N ,+N N N N N N ;+;+;+;+;+;+;+*     ",
"    . '+'+)+)+)+!+~+f v v v v v v v {+{+{+{+{+]+]+]+]+]+]+]+]+]+]+]+]+]+]+]+]+^+~+/+r r r n n n n n n n n n (+]+]+]+]+]+]+*     ",
"    . _+_+_+_+_+_+:+<+[+[+[+[+[+[+[+[+[+[+[+[+}+_+_+_+_+_+_+_+_+_+_+_+|+|+|+|+}+:+<+[+[+[+[+[+[+[+[+[+[+[+[+}+|+|+|+]+1+2+*     ",
"    . O.O.O.O.O.L.3+N.|.|.|.|.|.|.|.|.|.|.|.|.L.O.O.O.O.O.O.O.O.O.O.O.O.O.J.O.O.M.4+3.3.3.3.3.3.3.3.3.3.3.3.O.O.O.O.O.O.O.*     ",
"    . 5+5+5+5+5+J.6+7+7.7.7.7.7.7.7.7.7.7.7.7.J.5+5+5+5+5+5+5+5+5+5+5+5+5+5+5+J.8+7+7.7.7.7.7.7.b.7.7.7.7.b.J.5+5+5+5+5+5+*     ",
"    . 5+5+5+5+5+5+8+1.b.b.b.b.b.b.b.c.b.b.b.b.5+5+5+5+9+5+9+9+5+9+5+5+9+5+5+5+5+W H.b.c.c.c.c.c.c.c.c.c.c.c.5+9+9+9+9+9+9+*     ",
"    . 0+0+0+0+0+a+G.a.d.d.d.d.d.d.d.d.d.d.d.d.a+0+0+0+0+0+0+0+0+0+0+0+0+0+0+0+a+G.H.d.d.d.d.d.d.d.d.d.d.d.d.a+0+0+0+0+0+0+*     ",
"    . 5+J.5+J.b+c+d+e+f+f+f+g+h+3.3.g+g+f+g+g+O.i+9+9+i+O.9+c+c+9+i+i+5+9+c+c+c+j+k+|.|.|.l+h+h+h+h+h+l+|.|.L.O.O.O.O.O.O.*     ",
"    . m+m+. . . . . . . n+o+p+q+. . . . r+s+t+u+. v+w+x+. . . y+z+A+B+C+D+E+F+G+H+I+J+K+L+M+. N+O+P+Q+R+S+T+X.T.T.T.T.T.U+*     ",
"    . .+.+V+. . W+X+Y+Z+D+. `+ @.@. . +@@@#@$@. . %@&@*@=@. -@;@. . >@,@'@)@. !@~@{@]@. r+^@/@(@r+. _@:@<@[@}@++++++++++++*     ",
"    . *+*+|@. . 1@1@&@2@3@. . 4@5@6@. 7@8@9@0@. . a@1@b@c@d@e@. . f@g@h@i@j@k@l@m@n@. . o@p@q@r@s@. . t@r@<@.+-+-+-+-+-+-+*     ",
"    u@* * * D+. v@v@w@x@y@z@. # A@B@. . C@D@. E@. . F@G@H@I@J@. . K@L@M@N@O@P@Q@R@S@. T@U@V@W@X@Y@u+. Z@V@`@ #.#2+2+2+2+2+*     ",
"            . . +#+#      D+. @#+###. . $#%#. &#. . *#=#. -#;#. . >#,#'#. . . x+)#. . !#~#{#]#^#/#(#. D+~#_#:#2+'+'+)+'+'+*     ",
"            . . +#+#      . . <#+#+#[#. }#|#1#2#3#. 4#5#6#7#8#. . 9#0#a#b#c#. r+d#S@. T@1@e#f#/#g#u+. h#i#j#k#l#]+m#m#]+]+*     ",
"            . . +#+#    # . . n#+#  |#. . . o#p#q#. . r#s#t#u## . v#w#x# # #. r+p#y#. . z#A#B#C#D#. . E#F#G#H#]+I#I#_+I#_+*     ",
"          D+. . J#J#K#L#. . M#N#+#    . . `+O#P#Q#D+. . R#P#S#T#U#. # V#W#X#. Y#Z#`# $. # .$+$@$# . #$$$%$&$*$=$* * * * * *     ",
"          . . . . . . `+-$%#N#+#      . . ;$+#+#  >$. ,$'$+#      )$1#!$. . ~${$'$N#  ]$-$^$. /$($_$:$<$                        ",
"                +#+#                        +#          +#                                                                      ",
"                                                                                                                                "};
