/* XPM */
static char * fog_xpm[] = {
"64 64 599 2",
"  	c None",
". 	c #252A31",
"+ 	c #29323B",
"@ 	c #262D35",
"# 	c #272C33",
"$ 	c #DBEDF9",
"% 	c #DBECF9",
"& 	c #DBECF8",
"* 	c #DAECF8",
"= 	c #DAEBF8",
"- 	c #B7BAC7",
"; 	c #D8EAF6",
"> 	c #D8E9F6",
", 	c #D8E9F5",
"' 	c #D7E9F5",
") 	c #D7E8F5",
"! 	c #D5E7F3",
"~ 	c #D5E6F3",
"{ 	c #D5E6F2",
"] 	c #D5E5F2",
"^ 	c #D4E6F2",
"/ 	c #D4E5F2",
"( 	c #D4E5F1",
"_ 	c #D2E3F0",
": 	c #D2E3EF",
"< 	c #D1E3EF",
"[ 	c #D1E2EF",
"} 	c #D1E2EE",
"| 	c #D0E2EE",
"1 	c #CFE0EC",
"2 	c #CEE0EC",
"3 	c #CEDFEC",
"4 	c #CEDFEB",
"5 	c #CDDFEB",
"6 	c #CEDEEB",
"7 	c #CDDEEB",
"8 	c #CBDDE9",
"9 	c #CBDCE9",
"0 	c #CBDCE8",
"a 	c #CADCE8",
"b 	c #CADBE8",
"c 	c #C9DAE6",
"d 	c #C8DAE6",
"e 	c #C8D9E6",
"f 	c #C8D9E5",
"g 	c #C7D9E5",
"h 	c #C7D8E5",
"i 	c #C6D7E4",
"j 	c #C6D7E3",
"k 	c #C6D6E3",
"l 	c #C5D6E3",
"m 	c #C4D6E2",
"n 	c #C4D5E2",
"o 	c #C3D5E1",
"p 	c #C3D4E1",
"q 	c #C3D4E0",
"r 	c #C4D5E1",
"s 	c #C4D4E1",
"t 	c #C3D3DF",
"u 	c #C2D0DA",
"v 	c #C1CED8",
"w 	c #C1CED7",
"x 	c #C1CFD8",
"y 	c #C2CFD8",
"z 	c #C2CED7",
"A 	c #C2CFD7",
"B 	c #C2CED8",
"C 	c #C3D1DB",
"D 	c #C0C9D0",
"E 	c #BEC5C9",
"F 	c #BEC4C8",
"G 	c #BEC4C9",
"H 	c #C5D6E2",
"I 	c #C5D5E2",
"J 	c #BFC5CA",
"K 	c #BFC5C9",
"L 	c #C3D0D9",
"M 	c #BFC6CA",
"N 	c #D3D1D1",
"O 	c #D2D2D1",
"P 	c #D2D2D2",
"Q 	c #D3D2D2",
"R 	c #D3D2D1",
"S 	c #C3D0DA",
"T 	c #C0C6CB",
"U 	c #C7D7E4",
"V 	c #C7D8E4",
"W 	c #C4D1DA",
"X 	c #C0C6CA",
"Y 	c #D4D3D3",
"Z 	c #C7D7E3",
"` 	c #C5D1DB",
" .	c #C1C7CB",
"..	c #C6D3DC",
"+.	c #C2C8CC",
"@.	c #D5D4D4",
"#.	c #C8D8E4",
"$.	c #D5D4D5",
"%.	c #D5D5D4",
"&.	c #D5D5D5",
"*.	c #C8D8E5",
"=.	c #C9DAE7",
"-.	c #C9DBE7",
";.	c #C9D9E5",
">.	c #C7D4DD",
",.	c #C3C9CD",
"'.	c #D6D5D5",
").	c #D6D5D6",
"!.	c #D6D6D6",
"~.	c #D6D6D5",
"{.	c #CADBE7",
"].	c #C7D5DE",
"^.	c #C4C9CE",
"/.	c #D7D6D6",
"(.	c #C9D6DF",
"_.	c #C5CBCF",
":.	c #D8D7D7",
"<.	c #CBDBE7",
"[.	c #C6CBD0",
"}.	c #D8D7D8",
"|.	c #D8D8D7",
"1.	c #D9D7D8",
"2.	c #D9D8D7",
"3.	c #D9D8D8",
"4.	c #CCDDE9",
"5.	c #CDDEEA",
"6.	c #CAD7E1",
"7.	c #C7CDD1",
"8.	c #DAD9D9",
"9.	c #CDDEE9",
"0.	c #CBD8E1",
"a.	c #C7CDD2",
"b.	c #DAD9DA",
"c.	c #DBD9D9",
"d.	c #DADADA",
"e.	c #CCD9E3",
"f.	c #C8CED3",
"g.	c #DCDBDB",
"h.	c #CFE0ED",
"i.	c #CFDFEB",
"j.	c #C9CFD3",
"k.	c #CFE1ED",
"l.	c #D0E1ED",
"m.	c #D0E1EE",
"n.	c #D0E0EC",
"o.	c #CEDAE3",
"p.	c #CAD0D4",
"q.	c #DDDCDC",
"r.	c #D0E0ED",
"s.	c #CEDAE4",
"t.	c #DDDDDD",
"u.	c #DEDDDD",
"v.	c #CFDBE5",
"w.	c #CBD1D5",
"x.	c #DFDDDE",
"y.	c #DFDEDE",
"z.	c #DEDEDE",
"A.	c #D1E1ED",
"B.	c #D2E2EF",
"C.	c #CFDCE5",
"D.	c #CCD2D6",
"E.	c #E0DFDF",
"F.	c #D2E2EE",
"G.	c #D2E2F0",
"H.	c #D0DCE6",
"I.	c #CDD2D6",
"J.	c #D3E3F0",
"K.	c #D3E3F1",
"L.	c #D0DDE7",
"M.	c #CDD3D7",
"N.	c #E1E0E0",
"O.	c #D3E2EF",
"P.	c #D1DDE7",
"Q.	c #CDD3D8",
"R.	c #D4E3F1",
"S.	c #D1DEE7",
"T.	c #CED4D8",
"U.	c #E2E1E1",
"V.	c #D4E4F1",
"W.	c #D2DEE8",
"X.	c #CED4D9",
"Y.	c #E3E1E2",
"Z.	c #D2DFE8",
"`.	c #CFD5D9",
" +	c #E3E2E2",
".+	c #D4E4F0",
"++	c #D4E4F2",
"@+	c #D5E4F2",
"#+	c #D5E4F1",
"$+	c #D3DFE9",
"%+	c #D0D5D9",
"&+	c #E3E2E3",
"*+	c #E3E3E3",
"=+	c #D0D6DA",
"-+	c #E4E3E3",
";+	c #D5E5F3",
">+	c #D6E5F3",
",+	c #D4E0EA",
"'+	c #D1D6DB",
")+	c #E5E4E4",
"!+	c #D1D7DB",
"~+	c #D6E6F3",
"{+	c #D6E5F4",
"]+	c #D6E5F2",
"^+	c #D5E0EA",
"/+	c #D2D7DC",
"(+	c #E6E5E5",
"_+	c #D6E6F4",
":+	c #D5E0EB",
"<+	c #D7E6F4",
"[+	c #D3D8DD",
"}+	c #E6E6E5",
"|+	c #E6E5E6",
"1+	c #E7E5E5",
"2+	c #E6E6E6",
"3+	c #E7E6E6",
"4+	c #D5E1EB",
"5+	c #D7E5F3",
"6+	c #D7E6F3",
"7+	c #D5E1EC",
"8+	c #D7E7F4",
"9+	c #D7E7F5",
"0+	c #D7E6F5",
"a+	c #D6E1EC",
"b+	c #D4D9DE",
"c+	c #E8E7E7",
"d+	c #D8E7F5",
"e+	c #D8E6F5",
"f+	c #D7E5F4",
"g+	c #E9E8E8",
"h+	c #E8E8E8",
"i+	c #E8E7E8",
"j+	c #E9E8E7",
"k+	c #E9E7E7",
"l+	c #D8E6F4",
"m+	c #D7E5F5",
"n+	c #D5D9DE",
"o+	c #D6E0EC",
"p+	c #E8E8E7",
"q+	c #D7E4F3",
"r+	c #D4D8DE",
"s+	c #D6E4F2",
"t+	c #D7E4F4",
"u+	c #D6E4F4",
"v+	c #D6E4F3",
"w+	c #D6E3F2",
"x+	c #D5DFEA",
"y+	c #D3D7DD",
"z+	c #E7E7E7",
"A+	c #E7E6E7",
"B+	c #E7E7E6",
"C+	c #D5E3F1",
"D+	c #D5E3F2",
"E+	c #D5E3F3",
"F+	c #D5E4F3",
"G+	c #D4DFEA",
"H+	c #D5E2F1",
"I+	c #D4E1F1",
"J+	c #D4E2F1",
"K+	c #D4E1F0",
"L+	c #D2DDE8",
"M+	c #D1D5DB",
"N+	c #E6E4E5",
"O+	c #E6E4E4",
"P+	c #D3E0EF",
"Q+	c #D3E1F0",
"R+	c #D2DCE8",
"S+	c #D0D5DA",
"T+	c #D3E0EE",
"U+	c #D3E0F0",
"V+	c #D1DFEE",
"W+	c #D1DEEE",
"X+	c #D1DEED",
"Y+	c #D0DAE6",
"Z+	c #CED3D8",
"`+	c #D0DDEC",
" @	c #D0DEEE",
".@	c #D0DEED",
"+@	c #D0DDED",
"@@	c #CFD9E4",
"#@	c #CDD2D7",
"$@	c #D0DDEB",
"%@	c #CEDBEB",
"&@	c #CEDBEA",
"*@	c #CDDAE9",
"=@	c #CDD6E2",
"-@	c #CBD0D5",
";@	c #CDDBEA",
">@	c #CDDAEA",
",@	c #CDD9E9",
"'@	c #CCD6E1",
")@	c #CACFD4",
"!@	c #CCD9E8",
"~@	c #CCDAE9",
"{@	c #CCD9E9",
"]@	c #CAD7E7",
"^@	c #CAD7E6",
"/@	c #C9D3DF",
"(@	c #C8CCD2",
"_@	c #DCDCDC",
":@	c #DDDCDB",
"<@	c #DDDBDB",
"[@	c #C9D6E5",
"}@	c #CAD6E6",
"|@	c #C9D7E6",
"1@	c #C9D6E6",
"2@	c #C8D5E4",
"3@	c #C7D1DD",
"4@	c #C6CAD0",
"5@	c #DBDADA",
"6@	c #DBD9DA",
"7@	c #C7D4E3",
"8@	c #C7D5E4",
"9@	c #C7D4E4",
"0@	c #C3D0DF",
"a@	c #C2CFDE",
"b@	c #C2CBD7",
"c@	c #C0C5CA",
"d@	c #C2CEDD",
"e@	c #C2CEDE",
"f@	c #C1CEDE",
"g@	c #C1CFDE",
"h@	c #C1CEDD",
"i@	c #C1CDDC",
"j@	c #C0CAD5",
"k@	c #BEC3C8",
"l@	c #D3D3D3",
"m@	c #D3D3D2",
"n@	c #C0CCDC",
"o@	c #C0CDDD",
"p@	c #C0CDDC",
"q@	c #BECADA",
"r@	c #BDCAD9",
"s@	c #BCC6D2",
"t@	c #BBC0C5",
"u@	c #D1D0D0",
"v@	c #D1CFCF",
"w@	c #D0D0D0",
"x@	c #D1CFD0",
"y@	c #BDC9D9",
"z@	c #BDCADA",
"A@	c #BBBFC5",
"B@	c #D0CFCF",
"C@	c #BDC9D8",
"D@	c #C4D1E1",
"E@	c #C6D3E3",
"F@	c #D1DDED",
"G@	c #D1DDEC",
"H@	c #D0D9E5",
"I@	c #CFD3D8",
"J@	c #CFD4D9",
"K@	c #D2DEEE",
"L@	c #D2DEEF",
"M@	c #D2DDED",
"N@	c #D1DAE6",
"O@	c #D0D4DA",
"P@	c #D2DEED",
"Q@	c #D3DFEF",
"R@	c #D2DFEF",
"S@	c #D2DBE7",
"T@	c #D1D5DA",
"U@	c #D2DFEE",
"V@	c #D3DEEE",
"W@	c #D3DFEE",
"X@	c #D2DBE6",
"Y@	c #E5E3E4",
"Z@	c #D2DDEE",
"`@	c #D1DDEE",
" #	c #D2DDEC",
".#	c #D1D9E5",
"+#	c #D0DCEC",
"@#	c #CFDBEB",
"##	c #373B42",
"$#	c #65696D",
"%#	c #C0C0C1",
"&#	c #D3D3D4",
"*#	c #262B32",
"=#	c #BEC8D5",
"-#	c #D6E0EE",
";#	c #D7E1EE",
">#	c #A0A9B5",
",#	c #5C636D",
"'#	c #383E46",
")#	c #282D34",
"!#	c #32383F",
"~#	c #4A5059",
"{#	c #8A929C",
"]#	c #D4DCE7",
"^#	c #D0D4D9",
"/#	c #929497",
"(#	c #51555A",
"_#	c #30343B",
":#	c #30353B",
"<#	c #95979A",
"[#	c #CED9E9",
"}#	c #CEDAEA",
"|#	c #CCD8E9",
"1#	c #CCD8E8",
"2#	c #616973",
"3#	c #8E939A",
"4#	c #8D9298",
"5#	c #85898F",
"6#	c #65686D",
"7#	c #B7B8BA",
"8#	c #85878A",
"9#	c #2D3239",
"0#	c #989A9D",
"a#	c #EFEEEE",
"b#	c #888D95",
"c#	c #E2E8F2",
"d#	c #8C949E",
"e#	c #363C44",
"f#	c #838990",
"g#	c #6F747C",
"h#	c #393E45",
"i#	c #737880",
"j#	c #7E848C",
"k#	c #61676F",
"l#	c #656B72",
"m#	c #E0E5EC",
"n#	c #CDD1D5",
"o#	c #4D5156",
"p#	c #282C33",
"q#	c #717478",
"r#	c #96999C",
"s#	c #717378",
"t#	c #DFE0E0",
"u#	c #CBD7E6",
"v#	c #CBD7E7",
"w#	c #C8D4E4",
"x#	c #EBEFF5",
"y#	c #EBEFF4",
"z#	c #E1E7EE",
"A#	c #E9E9E9",
"B#	c #A6A7AA",
"C#	c #4F5358",
"D#	c #5B5F64",
"E#	c #383C43",
"F#	c #F3F3F3",
"G#	c #F1F1F1",
"H#	c #474C53",
"I#	c #EAEFF5",
"J#	c #DEE5EF",
"K#	c #535961",
"L#	c #5E646C",
"M#	c #9DA2A9",
"N#	c #555A62",
"O#	c #DEE4EA",
"P#	c #E8EDF3",
"Q#	c #E4EAF2",
"R#	c #DFE6EF",
"S#	c #696F77",
"T#	c #656A72",
"U#	c #E3E7ED",
"V#	c #75797E",
"W#	c #9FA0A3",
"X#	c #EFEFEF",
"Y#	c #EEEEEE",
"Z#	c #EBEAEA",
"`#	c #999A9D",
" $	c #828588",
".$	c #CBD6E4",
"+$	c #C8D5E5",
"@$	c #6C707A",
"#$	c #E0E1E7",
"$$	c #CCCED7",
"%$	c #C1C4CF",
"&$	c #BEC1CC",
"*$	c #2F343B",
"=$	c #E7E8EC",
"-$	c #8D9097",
";$	c #BFC1C5",
">$	c #CACBD0",
",$	c #353A42",
"'$	c #CCCFD4",
")$	c #D8DFE7",
"!$	c #292E35",
"~$	c #929AA4",
"{$	c #545A61",
"]$	c #C8CDD3",
"^$	c #E1E8F0",
"/$	c #D6DFEB",
"($	c #D0DAE8",
"_$	c #CDD6E4",
":$	c #D9DFE7",
"<$	c #EBEBEB",
"[$	c #F0F0F0",
"}$	c #E0E0E0",
"|$	c #3C4147",
"1$	c #F0EFEF",
"2$	c #C6D2E2",
"3$	c #FFFFFF",
"4$	c #2B2F36",
"5$	c #CECFD0",
"6$	c #75787D",
"7$	c #7F8286",
"8$	c #A6AEB7",
"9$	c #A7ACB3",
"0$	c #C6CED9",
"a$	c #444950",
"b$	c #E8ECF1",
"c$	c #E8ECF3",
"d$	c #808690",
"e$	c #D5DCE4",
"f$	c #363A40",
"g$	c #F2F1F2",
"h$	c #EDEDED",
"i$	c #2F343A",
"j$	c #F2F1F1",
"k$	c #EAE9E9",
"l$	c #CDD7E3",
"m$	c #C4D0DF",
"n$	c #C3CFDF",
"o$	c #474B51",
"p$	c #2E333A",
"q$	c #3D4147",
"r$	c #42464C",
"s$	c #3F444A",
"t$	c #DEE4ED",
"u$	c #4C5158",
"v$	c #3F444B",
"w$	c #6E7279",
"x$	c #4D535A",
"y$	c #DBE2EB",
"z$	c #BCC0C6",
"A$	c #E5EAF1",
"B$	c #C4CDD7",
"C$	c #AEB8C5",
"D$	c #B2BBC7",
"E$	c #E0E4EA",
"F$	c #363B42",
"G$	c #ECEBEB",
"H$	c #CDCCCC",
"I$	c #393D43",
"J$	c #F2F2F2",
"K$	c #CCD6E3",
"L$	c #8F9195",
"M$	c #7A7D81",
"N$	c #E4E9F0",
"O$	c #8D939A",
"P$	c #898D94",
"Q$	c #E1E7EF",
"R$	c #B7BEC6",
"S$	c #43484F",
"T$	c #CACFD5",
"U$	c #D6DDE7",
"V$	c #C9D3E1",
"W$	c #C9D3E0",
"X$	c #E4E8EE",
"Y$	c #777B81",
"Z$	c #A4A5A8",
"`$	c #DEDDDE",
" %	c #8E8E91",
".%	c #F1F0F0",
"+%	c #CAD4E0",
"@%	c #C0CCDB",
"#%	c #BFCBDB",
"$%	c #7A7D82",
"%%	c #55585E",
"&%	c #2D3238",
"*%	c #464A50",
"=%	c #F9F9F9",
"-%	c #DCDEE2",
";%	c #E2E3E8",
">%	c #C0C2CB",
",%	c #C6C7CB",
"'%	c #D1D3DB",
")%	c #91949D",
"!%	c #2C3138",
"~%	c #52565C",
"{%	c #656971",
"]%	c #5F636B",
"^%	c #272B33",
"/%	c #E1E2E8",
"(%	c #D4D6DC",
"_%	c #484C54",
":%	c #6F7279",
"<%	c #898C94",
"[%	c #63676F",
"}%	c #4E5259",
"|%	c #DADBE1",
"1%	c #E3E4E9",
"2%	c #D2D3DC",
"3%	c #C0C2CE",
"4%	c #B8BBC7",
"5%	c #54585D",
"6%	c #2E3239",
"7%	c #33383E",
"8%	c #FDFDFD",
"9%	c #595D62",
"0%	c #2B3036",
"a%	c #484C52",
"b%	c #55595E",
"c%	c #2B3037",
"d%	c #2A2E35",
"e%	c #3B3F45",
"f%	c #76797D",
"g%	c #EFEFF0",
"h%	c #F8F8F8",
"                                                                                                                                ",
"                                                                                                                                ",
"    . + + + + + @ @ @ @ @ @ @ @ @ @ @ @ @ @ @ @ @ @ @ @ @ @ @ @ @ @ @ @ @ @ @ @ @ @ @ @ @ @ @ @ @ @ @ @ @ @ @ @ @ @ @ @ @ #     ",
"    . $ $ $ % $ % % % % $ % % % % % % % % % % & & % % & & & & & & & & & & & & & & * * & * * * * * * * * * = = = * = = = = -     ",
"    . ; ; ; ; ; ; ; ; > > > > > > > > > > > > > > > > > , , , , , , , , , , , , ' ' ' ' ' ' ' ' ' ) ' ' ) ) ) ) ) ) ) ) ) -     ",
"    . ! ~ ! ! ~ ~ ! ! ! ~ ~ ~ ~ { ~ { { { { { { { { { { { { { { { { { { ] { { { ^ / ] / / / / / / / / / / ( ( ( ( ( ( ( ( -     ",
"    . _ _ _ _ _ : _ _ _ : : : : : : : : : < : : < < < < [ < [ < [ [ [ [ < [ [ [ [ [ [ [ [ } } } } } } } } } } } } } } } | -     ",
"    . 1 1 1 1 2 2 2 2 2 2 2 2 2 3 2 3 3 2 3 3 3 3 3 3 3 3 3 3 3 3 3 4 4 4 4 4 4 4 4 4 5 4 4 5 4 4 5 6 7 5 5 7 7 5 5 5 7 5 -     ",
"    . 8 8 8 9 8 8 9 8 9 8 9 8 8 9 9 9 9 9 9 9 0 0 0 0 0 0 0 0 0 0 0 a a 0 0 a a a a a b b a a a a b b a b b b b b b b b b -     ",
"    . c d c d d d d d d d d d d d d e e e e e e e e e e e e e e e e e f e f f f f f f f g f g g g g g g g g g g g g g h h -     ",
"    . i i i i i i i i i i i i j j j j j j j j j j j j j j j j j j j j j j j j j j j j j j j k j j j j k j j j l l k k l k -     ",
"    . m m n m m n n m m n n n n n n n n n n n n n n n n n n n n n n n n n n n n n n n n n n n n n n n n n n n n n n n n n -     ",
"    . o o o o p o o o o p p o p o o o o o o o o o o o p o o o o o p o o p p p p o p p p o o p p o p p p o o p o p p p p p -     ",
"    . p p p p p p p p p p o p p p p p p p p p p p p p p p p p p o p p p p p p p p p p p o o o p p p p p o p p p p p p o p -     ",
"    . p p o o o o p q q q q q q q q q q q q q o o p o o o o p o r o o o o o p o p q q q q q q q q q q q q p o o o o o r o -     ",
"    . r r r r r s t u v w w w w w w w w x u t r r r r r r r r n r r n n r r r r t u x x y z A z y y B y u t r n n n n n n -     ",
"    . n m n n m r C D E F F F F F F G F E D C r m H m m H m I H H H H H I H m r C D J E G E G E K E G J D C n l l l l l l -     ",
"    . l l l l l I L M N O N P O O P Q N R Q Q I j j k j j j j k k j j j j k j H S T Q Q Q Q Q Q Q Q Q Q Q Q H j j j j j j -     ",
"    . U V i U V j W X Y Y Y Y Y Y Y Y Y Y Y Y j V V V V V V V V V V V V V V V Z `  .Y Y Y Y Y Y Y Y Y Y Y Y Z V V V V V V -     ",
"    . f g f g f V ..+.@.@.@.@.@.@.@.@.@.@.@.@.V e e e e e e e e e e e e e e e #...+.$.@.%.$.&.@.&.&.&.&.&.&.*.d d e d d e -     ",
"    . =.-.=.=.=.;.>.,.'.'.).'.!.!.!.~.!.!.!.!.c -.-.{.-.-.-.{.-.-.{.{.{.{.{.{.c ].^././././././././././././.c b b b b {.b -     ",
"    . 0 0 0 0 0 {.(._.:.:.:.:.:.:.:.:.:.:.:.:.<.9 8 8 8 8 8 8 9 9 8 8 8 8 8 8 0 (.[.}.:.|.1.2.3.3.3.3.3.3.3.0 8 8 8 8 4.4.-     ",
"    . 5.5.5.5.5.4.6.7.8.8.8.8.8.8.8.8.8.8.8.8.4.7 7 7 7 7 7 7 7 7 7 7 7 7 7 7 9.0.a.8.8.8.8.8.b.8.c.d.8.c.b.5.5 5 5 5 5 4 -     ",
"    . 2 2 2 2 2 4 e.f.g.g.g.g.g.g.g.g.g.g.g.g.4 h.h.h.h.h.h.h.h.h.h.h.h.h.h.1 i.e.j.g.g.g.g.g.g.g.g.g.g.g.g.i.k.k.k.k.k.k.-     ",
"    . l.l.l.m.l.n.o.p.q.q.q.q.q.q.q.q.q.q.q.q.1 m.m.m.m.m.m.m.m.m.m.l.m.m.m.m.r.s.p.t.u.t.t.t.u.u.u.t.t.u.u.r.m.m.m.m.m.| -     ",
"    . } } } } } l.v.w.x.u.y.z.y.x.z.y.y.y.y.y.A.[ [ [ [ [ [ [ [ } [ [ } [ [ [ A.v.w.y.y.y.y.y.y.y.y.y.y.y.y.A.[ [ [ [ [ [ -     ",
"    . : B.B.B.: } C.D.E.E.E.E.E.E.E.E.E.E.E.E.F.: : _ : : _ _ : _ G._ G._ _ G.F.H.I.E.E.E.E.E.E.E.E.E.E.E.E.F._ _ _ _ _ _ -     ",
"    . J.J.J.J.K.B.L.M.N.N.N.N.N.N.N.N.N.N.N.N.B.J.J.J.J.J.J.J.J.J.J.J.J.J.J.J.O.P.Q.N.N.N.N.N.N.N.N.N.N.N.N.O.K.K.J.J.J.J.-     ",
"    . R.K.K.K.R.J.S.T.U.U.U.U.U.U.U.U.U.U.U.U.J.V.V.V.R.V.V.R.V.V.V.R.V.V.V.V.J.W.X.U.U.U.U.U.U.U.U.U.U.Y.U.J.V.V.V.V.V.V.-     ",
"    . V.V.V.V.V.R.Z.`. + + + + + + + + + + + +.+++++++++++@+++++++++++@+@+++#+V.$+%+&+&+*+*+*+*+*+*+*+*+*+*+R.@+++@+@+++++-     ",
"    . @+] ] ] ] #+$+=+-+-+-+-+-+-+-+-+-+-+-+-+#+] ] ] ] ] ] ] ] ] ] ] ] ] ] ] #+$+=+-+-+-+-+-+-+-+-+-+-+-+-+#+;+;+;+;+;+;+-     ",
"    . ;+>+;+;+;+] ,+'+)+)+)+)+)+)+)+)+)+)+)+)+] >+;+;+>+>+>+>+>+>+>+~ >+>+;+>+] ,+!+)+)+)+)+)+)+)+)+)+)+)+)+] ~+>+>+>+~+~+-     ",
"    . {+~+>+{+~+]+^+/+(+(+(+(+(+(+(+(+(+(+(+(+]+~+~+~+~+_+_+~+~+_+_+~+_+_+~+~+]+:+/+(+(+(+(+(+(+(+(+(+(+(+(+]+_+_+_+_+_+_+-     ",
"    . <+_+<+<+<+>+:+[+(+(+(+}+}+|+1+(+}+}+2+3+>+<+<+_+_+<+<+<+<+<+<+<+<+<+<+<+~+4+[+3+3+3+3+3+3+3+3+3+3+3+3+5+<+<+<+<+<+<+-     ",
"    . <+<+<+<+<+6+7+[+3+3+3+3+3+3+3+3+3+3+3+3+6+8+<+<+<+<+9+0+0+0+<+<+8+9+<+0+5+7+[+3+3+3+3+3+3+3+3+3+3+3+3+5+0+0+0+0+0+0+-     ",
"    . 9+0+0+0+0+6+a+b+c+c+c+c+c+c+c+c+c+c+c+c+6+0+0+0+0+0+0+9+0+0+0+9+0+0+0+0+<+a+b+c+c+c+c+c+c+c+c+c+c+c+c+5+d+d+0+<+9+0+-     ",
"    . e+e+e+e+0+<+a+b+c+c+c+c+c+c+c+c+c+c+c+c+f+0+e+e+0+0+e+9+0+e+0+e+0+0+9+0+f+a+b+c+c+c+c+c+c+c+c+c+c+c+c+<+0+0+e+9+0+0+-     ",
"    . e+e+0+e+0+5+a+b+c+g+g+h+g+i+g+h+j+j+k+g+<+e+e+e+e+e+e+e+e+e+e+e+e+e+e+e+<+a+b+g+g+g+g+g+g+g+g+g+g+g+g+f+e+e+e+d+0+d+-     ",
"    . 0+e+e+0+0+f+a+b+g+g+g+g+g+g+g+g+g+g+g+g+5+0+0+0+0+0+e+e+e+e+0+0+0+0+0+0+f+a+b+g+g+g+g+g+g+g+g+g+g+g+g+5+0+<+<+0+0+0+-     ",
"    . e+e+l+l+<+5+a+b+g+g+g+g+g+g+g+g+g+g+g+g+5+m+m+<+e+<+0+l+l+0+0+l+0+<+0+0+5+a+n+g+g+g+g+g+g+g+g+g+g+g+g+5+<+<+0+0+m+<+-     ",
"    . f+f+f+f+f+5+o+b+g+g+g+g+p+k+g+h+j+j+i+c+q+f+f+f+f+f+f+f+f+f+f+f+f+f+f+{+q+:+r+c+c+c+c+c+c+c+c+c+c+c+c+s+t+u+u+u+u+u+-     ",
"    . v+v+v+v+v+w+x+y+z+A+3+3+3+B+3+3+3+3+3+3+C+D+D+E+F+E+D+D+D+D+D+D+D+D+D+D+C+G+/+3+3+3+3+3+3+3+3+3+3+3+3+H+D+D+D+D+D+D+-     ",
"    . I+I+J+I+I+K+L+M+N+)+O+)+)+)+)+)+)+)+)+)+P+K+K+K+K+K+K+K+Q+Q+Q+Q+Q+Q+Q+Q+P+R+S+)+)+)+)+)+)+)+)+)+)+)+)+T+Q+P+U+U+U+P+-     ",
"    . V+V+W+V+V+X+Y+Z+ + + + + + + + + + + + +`+ @ @X+.@.@.@.@.@.@.@.@.@.@+@.@`+@@#@U.U.U.U.U.U.U.U.U.U.U.U.$@+@+@+@+@+@+@-     ",
"    . %@&@%@%@&@*@=@-@E.E.E.E.E.E.E.E.E.E.E.E.*@;@;@>@;@>@;@>@>@>@>@>@>@>@>@>@,@'@)@y.y.y.y.y.y.y.y.y.y.y.y.!@~@~@~@~@~@{@-     ",
"    . ]@]@]@]@]@^@/@(@q.q.q.q.q.q._@:@<@g.g.g.[@}@|@|@1@1@1@1@1@1@[@1@[@[@[@[@2@3@4@5@5@5@5@5@5@5@6@8.8.8.8.7@8@9@8@9@9@9@-     ",
"    . 0@0@0@0@0@a@b@c@@.@.@.@.@.@.@.@.@.@.@.@.d@e@a@e@e@a@e@f@g@f@f@f@f@f@h@h@i@j@k@Y Y Y l@l@m@l@Q Q Q Q Q n@o@p@o@p@p@o@-     ",
"    . q@q@q@q@q@r@s@t@u@u@u@u@u@u@u@v@w@x@x@w@y@z@z@z@z@z@z@z@z@z@z@z@z@z@z@z@y@s@A@B@B@B@B@B@B@B@B@B@B@B@B@C@z@z@r@e@D@E@-     ",
"    . F@X+F@W+X+G@H@I@-+-+-+-+-+-+-+-+-+-+-+-+G@F@F@X+F@X+X+X+X+W+X+W+X+X+W+X+F@H@J@-+-+-+-+-+-+-+-+-+-+-+-+F@W+W+W+W+W+W+-     ",
"    . K@L@K@K@K@M@N@O@)+)+)+)+)+)+)+)+)+)+)+)+P@K@L@K@K@K@K@K@K@L@K@K@K@K@K@K@P@N@O@)+)+)+)+)+)+)+)+)+)+)+)+P@L@L@K@L@L@L@-     ",
"    . Q@R@R@R@Q@K@S@T@(+(+(+(+(+(+(+(+(+(+(+(+U@Q@Q@Q@Q@Q@Q@Q@Q@Q@Q@Q@Q@Q@Q@Q@U@S@T@(+(+(+(+(+(+(+(+(+(+(+(+V@Q@Q@Q@Q@Q@Q@-     ",
"    . Q@Q@Q@Q@Q@W@S@M+(+(+(+(+(+(+(+(+(+(+(+(+W@Q@Q@Q@Q@Q@Q@Q@Q@Q@Q@Q@Q@Q@Q@Q@W@S@M+(+(+(+(+(+(+(+(+(+(+(+(+W@Q@Q@Q@Q@Q@Q@-     ",
"    . K@K@K@K@V@M@X@T@)+)+)+)+)+)+)+)+)+)+)+Y@G@W+K@Z@`@`@M@Z@P@M@F@F@F@M@M@M@ #.#I@-+-+-+-+-+-+-+-+-+-+-+-++#F@F@F@F@F@+@-     ",
"    . @#@#. . . . . . . ##$#%#(+. . . . # z+&#*#. =#-## . . . ;#>#,#'#)#*#!#~#{#]#^#u./#(#_#. :#(#<#E.-+U.N.[#}#}#}#}#}#}#-     ",
"    . |#1#2#. . 3#4#5#6#*#. )#7#8#. . 9#0#a#<#. . b#c#d#e#. f#g#. . h#i#j#k#. l#m#n#o#. p#q#r#s## . (#t#)+N.u#v#v#v#v#v#v#-     ",
"    . 1@1@w#. . x#y#z#A#B#. . C#a#D#. E#F#G#(#. . H#I#J#K#L#M#. . N#O#P#Q#R#S#T#U#V#. . W#X#Y#Z#`#. .  $Z# +.$+$2@+$+$2@+$-     ",
"    @$- - - *#. #$#$$$%$&$*$. # =$-$. . ;$>$. ,$. . '$)$!$~${$. . ]$x#^$/$($_$N@:$##. !$<$[$c+}$).*#. |$1$3+_$2$2$2$2$2$2$-     ",
"            . . 3$3$      *#. 4$3$5$. . 6$7$. 8$. . 5#9$. 0$a$. . b$c$d$. . . # e$. . f$g$h$}$:.'.i$. *#j$k$l$m$n$n$n$n$n$-     ",
"            . . 3$3$      . . o$3$3$p$. q$r$s$t$u$. v$w$x$y$T#. . z$A$B$C$D$. # E$F$. !$h$G$t.@.H$*#. I$J$Z#K$h@o@o@o@o@o@-     ",
"            . . 3$3$    # . . L$3$  r$. . . M$N$O$. . !$P$Q$R$# . S$T$U$V$W$. # X$Y$. . Z$G$`$@. %. . 7$.%c++%@%#%#%#%#%#%-     ",
"          *#. . $%$%%%&%. . *%=%3$    . . )#-%;%>%*#. . ,%;%'%)%!%. # ~%{%]%. ^%/%(%_%. # :%<%[%# . }%|%1%2%3%4%- - - - - -     ",
"          . . . . . . )#|$7$=%3$      . . 5%3$3$  6%. 7%8%3$      9%s$9#. . 0%a%8%=%  b%|$c%. d%e%f%g%h%                        ",
"                3$3$                        3$          3$                                                                      ",
"                                                                                                                                "};
