/* XPM */
const static char * main_xpm[] = {
"64 64 118 2",
"  	c None",
". 	c #252A31",
"+ 	c #000000",
"@ 	c #FFFFFF",
"# 	c #EAF4FD",
"$ 	c #D6E9FB",
"% 	c #D2E6FB",
"& 	c #CEE5FB",
"* 	c #C2DEFA",
"= 	c #B8D8F9",
"- 	c #89BFF6",
"; 	c #75B4F4",
"> 	c #62AAF3",
", 	c #B7BAC7",
"' 	c #F7FBFE",
") 	c #F3F8FE",
"! 	c #ADD2F8",
"~ 	c #81BBF5",
"{ 	c #F9FCFE",
"] 	c #EBF4FD",
"^ 	c #E8F2FD",
"/ 	c #A8D0F8",
"( 	c #EFF6FD",
"_ 	c #E5F1FD",
": 	c #C0DDFA",
"< 	c #71B2F4",
"[ 	c #9AC8F7",
"} 	c #B3D6F9",
"| 	c #EAF3FD",
"1 	c #EDF5FD",
"2 	c #F8FBFE",
"3 	c #F3F9FE",
"4 	c #FAFCFE",
"5 	c #90C3F6",
"6 	c #65ACF3",
"7 	c #6DB0F3",
"8 	c #98C7F7",
"9 	c #B2D5F9",
"0 	c #C6E0FA",
"a 	c #CCE3FB",
"b 	c #DBEBFC",
"c 	c #E0EEFC",
"d 	c #A0CBF7",
"e 	c #69AEF3",
"f 	c #6AAEF3",
"g 	c #8DC1F6",
"h 	c #9DCAF7",
"i 	c #BEDCFA",
"j 	c #C5E0FA",
"k 	c #D3E7FB",
"l 	c #D2E7FB",
"m 	c #CFE5FB",
"n 	c #DAEBFC",
"o 	c #D0E5FB",
"p 	c #D1E6FB",
"q 	c #E6F2FD",
"r 	c #80BAF5",
"s 	c #79B6F4",
"t 	c #EEF6FD",
"u 	c #E9F3FD",
"v 	c #E8F3FD",
"w 	c #A0CCF7",
"x 	c #F2F8FE",
"y 	c #BFDCFA",
"z 	c #7DB8F5",
"A 	c #86BEF5",
"B 	c #B5D7F9",
"C 	c #D5E8FB",
"D 	c #C5DFFA",
"E 	c #72B2F4",
"F 	c #BADAF9",
"G 	c #F1F7FD",
"H 	c #F6FAFE",
"I 	c #F0F7FD",
"J 	c #E7F2FD",
"K 	c #C3DEFA",
"L 	c #91C3F6",
"M 	c #FDFEFE",
"N 	c #FBFDFE",
"O 	c #D9EAFC",
"P 	c #94C5F6",
"Q 	c #68ADF3",
"R 	c #FEFEFE",
"S 	c #F5F9FE",
"T 	c #6BAFF3",
"U 	c #B0D4F9",
"V 	c #CDE4FB",
"W 	c #7FBAF5",
"X 	c #B0D4F8",
"Y 	c #7AB7F4",
"Z 	c #B6D7F9",
"` 	c #F4F9FE",
" .	c #A3CDF7",
"..	c #70B2F4",
"+.	c #82BBF5",
"@.	c #8EC2F6",
"#.	c #E6F1FD",
"$.	c #93C5F6",
"%.	c #ACD2F8",
"&.	c #CEE4FB",
"*.	c #F5FAFE",
"=.	c #E1EFFC",
"-.	c #73B3F4",
";.	c #A6CFF8",
">.	c #D7E9FB",
",.	c #ECF5FD",
"'.	c #85BDF5",
").	c #E3F0FC",
"!.	c #93C4F6",
"~.	c #86BDF5",
"{.	c #C1DDFA",
"].	c #BDDBFA",
"^.	c #76B5F4",
"/.	c #B7D8F9",
"(.	c #D8EAFC",
"_.	c #A1CCF7",
":.	c #292039",
"<.	c #00FF29",
". . . . . . . . . . . . . . . . . . . . . . . . . . . . . . . . . . . . . . . . . . . . . . . . . . . . . . . . . . . . . . . . ",
". . . . . . . . . . . . . . . . . . . . . . . . . . . . . . . . . . . . . . . . . . . . . . . . . . . . . . . . . . . . . . . . ",
". . . . . . . . . . . . . . . . . . . . . . . . . . . . . . . . . . . . . . . . . . . . . . . . . . . . . . . . . . . . . . . . ",
". . . + + + + + + + + + + + + + + + + + + + + + + + + + + + + + + + + + + + + + + + + + + + + + + + + + + + + + + + + + + . . . ",
". . . + @ @ @ @ @ @ @ @ @ @ @ @ @ @ @ @ @ @ @ @ @ @ @ @ @ @ @ @ @ @ @ @ @ @ @ # $ % $ & $ * = - ; > > > > > > > > > > > , . . . ",
". . . + @ @ @ @ @ @ @ @ @ @ @ @ @ @ @ @ @ @ @ @ @ @ @ @ @ @ @ @ @ @ @ @ @ @ @ @ @ @ @ @ @ @ @ ' ) ! ~ > > > > > > > > > , . . . ",
". . . + @ @ @ @ @ @ @ @ @ @ @ @ @ @ @ @ @ @ @ @ @ @ @ @ @ @ @ @ @ @ @ @ @ @ @ @ @ @ @ @ @ @ @ @ @ { ] ~ > > > > > > > > , . . . ",
". . . + @ @ @ @ @ @ @ @ @ @ @ @ @ @ @ @ @ @ @ @ @ @ @ @ @ @ @ @ @ @ @ @ @ @ @ @ @ @ @ @ @ @ @ @ @ @ @ ^ ~ > > > > > > > , . . . ",
". . . + @ @ @ @ @ @ @ @ @ @ @ @ @ @ @ @ @ @ @ @ @ @ @ @ @ @ @ @ @ @ @ @ @ @ @ @ @ @ @ @ @ @ @ @ @ @ @ @ / > > > > > > > , . . . ",
". . . + @ @ @ @ @ @ @ @ @ @ @ @ @ @ @ @ @ @ @ @ @ @ @ @ @ @ @ @ @ @ @ @ @ @ @ @ @ @ @ @ @ @ @ @ @ @ @ @ ( > > > > > > > , . . . ",
". . . + @ @ @ @ @ @ @ @ @ @ @ @ @ @ @ @ @ @ @ @ @ @ @ @ @ @ @ @ @ @ @ @ @ @ @ @ @ @ @ @ @ @ @ @ @ @ @ @ @ > > > > > > > , . . . ",
". . . + @ @ @ @ @ @ @ @ @ @ @ @ @ @ @ @ @ @ @ @ @ @ @ @ @ @ @ @ @ @ @ @ @ @ @ @ @ @ @ @ @ @ @ @ @ @ @ @ @ > > > > > > > , . . . ",
". . . + _ @ @ @ @ @ @ @ @ @ @ @ @ @ @ @ @ @ @ @ @ @ @ @ @ @ @ @ @ @ @ @ @ @ @ @ @ @ @ @ @ @ @ @ @ @ @ @ : > > > > > > > , . . . ",
". . . + < [ } | 1 2 3 4 @ @ @ @ @ @ @ @ @ @ @ @ @ @ @ @ @ @ @ @ @ @ @ @ @ @ @ @ @ @ @ @ @ @ @ @ @ @ @ @ 5 > > > > > > > , . . . ",
". . . + > > > > > > > 6 7 ~ 8 9 0 a b c @ @ @ @ @ @ @ @ @ @ @ @ @ @ @ @ @ @ @ @ @ @ @ @ @ @ @ @ @ @ @ d e > > > > > > > , . . . ",
". . . + > > > > > > > > > > > > > > > > f < g h i j k l $ $ l $ m n o b m $ l $ $ l $ p q q @ @ @ : d e > > > > > > > > , . . . ",
". . . + > > > > > > > > > > > > > > > > > > > > > > > > > > > > > > > > > > > > > > > > f < r r r < f > > > > > > > > > , . . . ",
". . . + > > > > > > > > > > > > > > > > > > > > > > > > > > > > > > > > > > > > > > > > > > > > > > > > > > > > > > > > , . . . ",
". . . + > > > > > > > > > > > > > > > > > > > > > > > > > > > > > > > > > > > > > > > > > > > > > > > > > > > > > > > > , . . . ",
". . . + > > > > > > > > > > > > > > > > > > > > > > > > > > > > > > > > > > > > > > > > > > > > > > > > > > > > > > > > , . . . ",
". . . + > > > > > > > > > > > > > > > > > > > > > > > > > > > > > > > > > > > > > > > > > > > > > > > > > > > > > > > > , . . . ",
". . . + > > > > > > > > > > > > > > > > > > > > > > > > > > > > > > > > > > > > > > > > > > > > > > > > > > > > > > > > , . . . ",
". . . + > > > > > > > > > 6 s 5 : o t u v } [ < e > > > > > > > > > > > > > > > > > > > > > > > > > > > > > > > > > > > , . . . ",
". . . + > > > > > > > > ; w c x @ @ @ @ @ @ @ a d e > > > > > > > > > > > > > > > > > > > > > > > > > > > > > > > > > > , . . . ",
". . . + > > > > > > > ; j x @ @ @ @ @ @ @ @ @ @ @ y z A 8 B j % C % k D i h g < e > > > > > > > > > > > > > > > > > > > , . . . ",
". . . + > > > > > > E F 2 @ @ @ @ @ @ @ @ @ @ @ @ @ G 4 @ @ @ @ @ @ @ @ @ @ @ H ' I J K L E > > > > > > > > > > > > > > , . . . ",
". . . + > > > > > > L t @ @ @ @ @ @ @ @ @ @ @ @ @ @ @ @ @ @ @ @ @ @ @ @ @ @ @ @ @ @ @ M N O P Q > > > > > > > > > > > > , . . . ",
". . . + > > > > > > K 4 @ @ @ @ @ @ @ @ @ @ @ @ @ @ @ @ @ @ @ @ @ @ @ @ @ @ @ @ @ @ @ @ @ @ M 0 A > > > > > > > > > > > , . . . ",
". . . + > > > > > > J @ @ @ @ @ @ @ @ @ @ @ @ @ @ @ @ @ @ @ @ @ @ @ @ @ @ @ @ @ @ @ @ @ @ @ @ R S h T > > > > > > > > > , . . . ",
". . . + > > > > > > ( @ @ @ @ @ @ @ @ @ @ @ @ @ @ @ @ @ @ @ @ @ @ @ @ @ @ @ @ @ @ @ @ @ @ @ @ @ @ 2 U T > > > > > > > > , . . . ",
". . . + > > > > > > x @ @ @ @ @ @ @ @ @ @ @ @ @ @ @ @ @ @ @ @ @ @ @ @ @ @ @ @ @ @ @ @ @ @ @ @ @ @ @ t h T > > > > > > > , . . . ",
". . . + > > > > > > u @ @ @ @ @ @ @ @ @ @ @ @ @ @ @ @ @ @ @ @ @ @ @ @ @ @ @ @ @ @ @ @ @ @ @ @ @ @ @ @ V W > > > > > > > , . . . ",
". . . + > > > > > > $ @ @ @ @ @ @ @ @ @ @ @ @ @ @ @ @ @ @ @ @ @ @ @ @ @ @ @ @ @ @ @ @ @ @ @ @ @ @ @ @ ] h > > > > > > > , . . . ",
". . . + > > > > > > [ @ @ @ @ @ @ @ @ @ @ @ @ @ @ @ @ @ @ @ @ @ @ @ @ @ @ @ @ @ @ @ @ @ @ @ @ @ @ @ @ @ X > > > > > > > , . . . ",
". . . + > > > > > > Y 4 @ @ @ @ @ @ @ @ @ @ @ @ @ @ @ @ @ @ @ @ @ @ @ @ @ @ @ @ @ @ @ @ @ @ @ @ @ @ @ @ X > > > > > > > , . . . ",
". . . + > > > > > > > Z @ @ @ @ @ @ @ @ @ @ @ @ @ @ @ @ @ M u b $ % n n ` ` M @ @ @ @ @ @ @ @ @ @ @ @ ] h > > > > > > > , . . . ",
". . . + > > > > > > > ~ G @ @ @ @ @ @ @ @ @ @ @ @ @ @ @ S  .6 > > > > > Q ..+.@.F #.@ @ @ @ @ @ @ @ @ V W > > > > > > > , . . . ",
". . . + > > > > > > > > $.H @ @ @ @ @ @ @ @ @ @ @ @ @ x %.T > > > > > > > > > > Q r &.*.@ @ @ @ @ @ =.h T > > > > > > > , . . . ",
". . . + > > > > > > > > 6 h _ @ @ @ @ @ @ @ @ @ @ R I %.T > > > > > > > > > > > > > -.;.>.t @ @ ,.V h T > > > > > > > > , . . . ",
". . . + > > > > > > > > > 6 '.= I @ @ @ @ @ @ R ' ).!.T > > > > > > > > > > > > > > > T W h X X h W T > > > > > > > > > , . . . ",
". . . + > > > > > > > > > > 6 7 ~.;.& # I ) u $ [ Y > > > > > > > > > > > > > > > > > > > > > > > > > > > > > > > > > > , . . . ",
". . . + > > > > > > > > > > > > > > > > > > > > > > > > > > > > > > > > > > > > > > > > > > > > > > > > > > > > > > > > , . . . ",
". . . + > > > > > > > > > > > > > > > > > > > > > > > > > > > > > > > > > > > > > > > > > > > > > > > > > > > > > > > > , . . . ",
". . . + > > > > > > > > > > > > > > > > > > > > > > > > > > > > > > > > > > > > > > > > > > f -.5 d {.].{.d 5 -.f > > > , . . . ",
". . . + > > > > > > > > > > > > > > > > > > > > > > > > > > > > > > > > > > f ^.$.;.i /.! !.X k @ @ @ @ @ @ @ u l h Y 6 , . . . ",
". . . + > > > > > > > > > > > > > > > > > > > > > > > > > > > > > > > > > -./ (.@ @ @ @ N 3 @ @ @ @ @ @ @ @ @ @ @ I &.'., . . . ",
". . . + > > > > > > > > > > > > > > > > > > > > > > > > > > > > > > > > -.Z @ @ @ @ @ @ @ @ @ @ @ @ @ @ @ @ @ @ @ @ @ C , . . . ",
". . . + > > > > > > > > > > > > > > > > > > > > > > > > > > > > > > > f ;.@ @ @ @ @ @ @ @ @ @ @ @ @ @ @ @ @ @ @ @ @ @ @ , . . . ",
". . . + > > > > > > > > > > > > > > > > > > > > > > > > > > > > > > > -.>.@ @ @ @ @ @ @ @ @ @ @ @ @ @ @ @ @ @ @ @ @ @ @ , . . . ",
". . . + > > > > > > > > > > > > > > > > > > > > > > > > > > > > > > > [ @ @ @ @ @ @ @ @ @ @ @ @ @ @ @ @ @ @ @ @ @ @ @ @ , . . . ",
". . . + > > > > > > > > > > > > > > > > > > > > > > > > > > > > > > > } @ @ @ @ @ @ @ @ @ @ @ @ @ @ @ @ @ @ @ @ @ @ @ @ , . . . ",
". . . + > > > > > > > > > > > > > > > > > > > > > > > > > > > > > > > _ @ @ @ @ @ @ @ @ @ @ @ @ @ @ @ @ @ @ @ @ @ @ @ @ , . . . ",
". . . + > > > > > > > > > > > > > > > > > > > > > > > > > > > > > > > ).@ @ @ @ @ @ @ @ @ @ @ @ @ @ @ @ @ @ @ @ @ @ @ @ , . . . ",
". . . + > > > > > > > > > > > > > > > > > > > > > > > > > > > > > > > =.@ @ @ @ @ @ @ @ @ @ @ @ @ @ @ @ @ @ @ @ @ @ @ @ , . . . ",
". . . + > > > > > > > > > > > > > > > > > > > > > > > > > > > > > > > _.' @ @ @ @ @ @ @ @ @ @ @ @ @ @ @ @ @ @ @ @ @ @ @ , . . . ",
". . . + > > > > > > > > > > > > > > > > > > > > > > > > > > > > > > > ~ I @ @ @ @ @ @ @ @ @ @ @ @ @ @ @ @ @ @ @ @ @ @ @ , . . . ",
". . . + , , , , , , , , , , , , , , , , , , , , , , , , , , , , , , , , , , , , , , , , , , , , , , , , , , , , , , , , , . . . ",
". . . . . . . . . . . . . . . . . . . . . . . . . . . . . . . . . . . . . . . . . . . . . . . . . . . . . . . . . . . . . . . . ",
". . . . @ @ @ @ @ . @ @ @ . @ . . . @ . @ @ @ . . . . . . . . . . . . . . . . . . . . . . . . . . . . . . . . . :.:.:.:.. . . . ",
". . . + + + @ + . + @ + . + @ @ . @ @ + @ + . @ . . . . . . . . . . . . . . . . . . . . . . . . . . . . . . . . :.<.<.<.. . . . ",
". . . . . + @ . . + @ @ @ + @ . @ + @ + @ @ @ . . . . . . . . . . . . . . . . . . . . . . . . . . . . . . . . . :.<.<.<.. . . . ",
". . . . . + @ . . + @ + . + @ + . + @ + @ + . . . . . . . . . . . . . . . . . . . . . . . . . . . . . . . . . . . . . . . . . . ",
". . . . . + @ . . + @ @ @ + @ . . + @ + @ . . . . . . . . . . . . . . . . . . . . . . . . . . . . . . . . . . . . . . . . . . . ",
". . . . . + . . . + + + . + . . . + . + . . . . . . . . . . . . . . . . . . . . . . . . . . . . . . . . . . . . . . . . . . . . "};
